<?xml version="1.0" encoding="UTF-8" standalone="no"?><!DOCTYPE svg PUBLIC "-//W3C//DTD SVG 1.1//EN" "http://www.w3.org/Graphics/SVG/1.1/DTD/svg11.dtd"><svg width="100%" height="100%" viewBox="0 0 800 800" version="1.1" xmlns="http://www.w3.org/2000/svg" xmlns:xlink="http://www.w3.org/1999/xlink" xml:space="preserve" xmlns:serif="http://www.serif.com/" style="fill-rule:evenodd;clip-rule:evenodd;stroke-linejoin:round;stroke-miterlimit:2;"><g id="Layer1"><path d="M800,200l0,400c0,110.383 -89.617,200 -200,200l-400,0c-110.383,0 -200,-89.617 -200,-200l0,-400c0,-110.383 89.617,-200 200,-200l400,0c110.383,0 200,89.617 200,200Z" style="fill:#fafafa;"/></g><g><path d="M461.409,694.344c-19.674,3.771 -40.004,5.656 -60.989,5.656c-54.826,0 -105.175,-12.867 -151.049,-38.601c-45.874,-25.735 -82.238,-61.259 -109.091,-106.574c-26.853,-45.874 -40.28,-97.622 -40.28,-155.245c0,-57.063 13.427,-108.251 40.28,-153.566c26.853,-45.874 63.217,-81.678 109.091,-107.413c45.874,-25.734 96.223,-38.601 151.049,-38.601c55.384,-0 105.734,12.867 151.049,38.601c9.973,5.595 19.483,11.666 28.531,18.212l0,360.208c0,23.83 -5.674,42.553 -17.021,56.17c-11.348,13.618 -27.802,20.426 -49.362,20.426c-16.454,0 -30.084,-3.921 -40.891,-11.764c7.207,-2.929 14.154,-6.344 20.84,-10.245c26.854,-16.223 47.833,-39.16 62.937,-68.811c15.105,-29.65 22.658,-64.056 22.658,-103.217c-0,-39.16 -7.553,-73.286 -22.658,-102.377c-15.104,-29.651 -36.083,-52.308 -62.937,-67.972c-26.853,-15.665 -57.902,-23.497 -93.146,-23.497c-35.245,0 -66.574,7.832 -93.986,23.497c-26.854,15.664 -47.833,38.321 -62.937,67.972c-15.105,29.091 -22.658,63.217 -22.658,102.377c0,39.161 7.553,73.567 22.658,103.217c15.104,29.651 36.083,52.588 62.937,68.811c9.462,5.408 19.391,9.881 29.787,13.422c8.578,25.763 22.32,47.633 41.226,65.608c23.27,21.769 51.257,36.338 83.962,43.706Z" style="fill:#0e0e0e;"/><path d="M580,156.813l-0,-56.813l120,0l-0,299.58c-0,-57.063 -13.427,-108.251 -40.28,-153.566c-20.577,-35.901 -47.15,-65.634 -79.72,-89.201Z" style="fill:#0e0e0e;"/><path d="M700,399.58l-0,117.441c-0,57.873 -16.738,102.979 -50.213,135.319c-33.475,31.773 -78.298,47.66 -134.468,47.66c-19.205,-0 -37.175,-1.885 -53.91,-5.656c31.725,-6.08 61.745,-17.062 90.06,-32.945c45.874,-25.735 81.958,-61.259 108.251,-106.574c26.853,-45.874 40.28,-97.622 40.28,-155.245Z" style="fill:#0e0e0e;"/><path d="M336.221,585.03c19.72,6.717 41.12,10.075 64.199,10.075c26.468,-0 50.57,-4.417 72.306,-13.252c-3.727,-2.705 -7.118,-5.875 -10.173,-9.513c-11.347,-14.184 -17.305,-34.042 -17.872,-59.574l-119.149,-0c-0,26.775 3.563,50.863 10.689,72.264Z" style="fill:#0e0e0e;"/></g></svg>