<svg width="26" height="26" viewBox="0 0 26 26" fill="none" xmlns="http://www.w3.org/2000/svg">
<g clip-path="url(#clip0_245_284)">
<path d="M19.396 0.5H6.11475C2.8787 0.5 0.255371 3.12333 0.255371 6.35938V19.6406C0.255371 22.8767 2.8787 25.5 6.11475 25.5H19.396C22.632 25.5 25.2554 22.8767 25.2554 19.6406V6.35938C25.2554 3.12333 22.632 0.5 19.396 0.5Z" fill="#F0DB4F"/>
<path d="M6.82883 21.3918L8.74192 20.234C9.11106 20.8884 9.4468 21.4421 10.2522 21.4421C11.0241 21.4421 11.5109 21.1401 11.5109 19.9655V11.9774H13.8603V19.9987C13.8603 22.432 12.4339 23.5396 10.3529 23.5396C8.47346 23.5396 7.38254 22.5663 6.82874 21.3916M15.1364 21.14L17.0492 20.0325C17.5529 20.8549 18.2074 21.459 19.3652 21.459C20.3387 21.459 20.9594 20.9723 20.9594 20.301C20.9594 19.4955 20.3217 19.2102 19.2477 18.7404L18.6605 18.4886C16.9655 17.7671 15.841 16.8608 15.841 14.9478C15.841 13.1856 17.1836 11.8431 19.2814 11.8431C20.7749 11.8431 21.849 12.3634 22.6208 13.7227L20.7916 14.8974C20.3888 14.1758 19.9527 13.8905 19.2814 13.8905C18.5933 13.8905 18.157 14.3269 18.157 14.8974C18.157 15.6021 18.5933 15.8875 19.6001 16.3239L20.1874 16.5756C22.1844 17.4315 23.3088 18.304 23.3088 20.2674C23.3088 22.382 21.6475 23.5398 19.4156 23.5398C17.234 23.5398 15.8243 22.4994 15.1364 21.14Z" fill="#323330"/>
</g>
<defs>
<clipPath id="clip0_245_284">
<rect width="25" height="25" fill="white" transform="translate(0.255371 0.5)"/>
</clipPath>
</defs>
</svg>
