<svg width="26" height="26" viewBox="0 0 26 26" fill="none" xmlns="http://www.w3.org/2000/svg">
<g clip-path="url(#clip0_204_99)">
<path d="M13.4136 5.50039C10.0802 5.50039 7.99754 7.16641 7.16356 10.4998C8.41317 8.83359 9.87196 8.20879 11.5382 8.62539C12.4895 8.8625 13.1694 9.55234 13.9223 10.3168C15.1477 11.5604 16.5661 13 19.6636 13C22.9968 13 25.0796 11.3338 25.9136 7.99961C24.6636 9.66667 23.2053 10.2918 21.5388 9.875C20.5876 9.6377 19.9085 8.94805 19.1546 8.18359C17.93 6.94004 16.512 5.50039 13.4136 5.50039ZM7.16356 13C3.83036 13 1.74754 14.6662 0.913559 18.0004C2.16343 16.3333 3.62163 15.7082 5.28817 16.125C6.23954 16.3623 6.91942 17.052 7.67235 17.8164C8.89774 19.06 10.3161 20.4996 13.4136 20.4996C16.7468 20.4996 18.8296 18.8336 19.6636 15.5002C18.4136 17.1665 16.9553 17.7913 15.2888 17.3746C14.3376 17.1375 13.6585 16.4477 12.9046 15.6832C11.68 14.4396 10.262 13 7.16356 13Z" fill="#38BDF8"/>
</g>
<defs>
<clipPath id="clip0_204_99">
<rect width="25" height="25" fill="white" transform="translate(0.912781 0.5)"/>
</clipPath>
</defs>
</svg>
