<svg width="26" height="26" viewBox="0 0 26 26" fill="none" xmlns="http://www.w3.org/2000/svg">
<path d="M5.45353 21.7508L3.69806 2.0625H22.9871L21.2293 21.7477L13.3309 23.9375L5.45353 21.7508Z" fill="#E44F26"/>
<path d="M13.3426 22.2641L19.7254 20.4945L21.227 3.67266H13.3426V22.2641Z" fill="#F1662A"/>
<path d="M13.3426 10.9742H10.1473L9.92697 8.50156H13.3426V6.08672H7.2879L7.34572 6.73516L7.93868 13.3891H13.3426V10.9742ZM13.3426 17.2453L13.3317 17.2484L10.6426 16.5227L10.4707 14.5969H8.0465L8.38478 18.3875L13.3317 19.7609L13.3426 19.7578V17.2453Z" fill="#EBEBEB"/>
<path d="M13.334 10.9742V13.3891H16.3074L16.0277 16.5211L13.334 17.2477V19.7602L18.2848 18.3875L18.3207 17.9797L18.8879 11.6227L18.9473 10.9742H13.334ZM13.334 6.08672V8.50156H19.1668L19.2152 7.95938L19.3254 6.73516L19.3832 6.08672H13.334Z" fill="white"/>
</svg>
