<svg width="26" height="26" viewBox="0 0 26 26" fill="none" xmlns="http://www.w3.org/2000/svg">
<g clip-path="url(#clip0_204_94)">
<path d="M0.84259 0.5H25.8426V25.5H0.84259V0.5Z" fill="#F7DF1E"/>
<path d="M7.41603 21.3918L9.32912 20.234C9.69826 20.8884 10.034 21.4421 10.8394 21.4421C11.6113 21.4421 12.0982 21.1401 12.0982 19.9655V11.9774H14.4475V19.9987C14.4475 22.432 13.0211 23.5396 10.9401 23.5396C9.06066 23.5396 7.96974 22.5663 7.41593 21.3916M15.7235 21.14L17.6364 20.0325C18.1401 20.8549 18.7945 21.459 19.9524 21.459C20.9259 21.459 21.5466 20.9723 21.5466 20.301C21.5466 19.4955 20.9089 19.2102 19.8349 18.7404L19.2477 18.4885C17.5527 17.7671 16.4283 16.8608 16.4283 14.9478C16.4283 13.1856 17.7708 11.8431 19.8686 11.8431C21.3621 11.8431 22.4361 12.3634 23.208 13.7227L21.3787 14.8975C20.9759 14.1759 20.5398 13.8906 19.8685 13.8906C19.1804 13.8906 18.7441 14.327 18.7441 14.8975C18.7441 15.6022 19.1804 15.8877 20.1872 16.324L20.7745 16.5757C22.7716 17.4316 23.8959 18.3042 23.8959 20.2675C23.8959 22.3821 22.2346 23.5399 20.0027 23.5399C17.8211 23.5399 16.4114 22.4995 15.7235 21.1401" fill="black"/>
</g>
<defs>
<clipPath id="clip0_204_94">
<rect width="25" height="25" fill="white" transform="translate(0.84259 0.5)"/>
</clipPath>
</defs>
</svg>
