<svg width="26" height="26" viewBox="0 0 26 26" fill="none" xmlns="http://www.w3.org/2000/svg">
<g clip-path="url(#clip0_245_280)">
<path d="M19.4661 0.5H6.18481C2.94877 0.5 0.325439 3.12333 0.325439 6.35938V19.6406C0.325439 22.8767 2.94877 25.5 6.18481 25.5H19.4661C22.7021 25.5 25.3254 22.8767 25.3254 19.6406V6.35938C25.3254 3.12333 22.7021 0.5 19.4661 0.5Z" fill="#007ACC"/>
<path d="M5.85386 13.0829L5.84595 14.1067H9.09985V23.3527H11.4016V14.1067H14.6555V13.1027C14.6555 12.5472 14.6437 12.0829 14.6278 12.071C14.6159 12.0552 12.6357 12.0472 10.2349 12.0512L5.86587 12.0631L5.85386 13.0829ZM20.498 12.034C21.1329 12.1928 21.617 12.4745 22.0615 12.9348C22.2916 13.1809 22.6329 13.6293 22.6607 13.7364C22.6686 13.7682 21.5813 14.4983 20.9226 14.907C20.8988 14.9229 20.8035 14.8197 20.6963 14.661C20.375 14.1928 20.0376 13.9903 19.5217 13.9547C18.7638 13.903 18.2757 14.2999 18.2797 14.9626C18.2797 15.157 18.3075 15.2721 18.3869 15.4309C18.5535 15.7761 18.863 15.9824 19.8353 16.403C21.625 17.1729 22.3908 17.6809 22.867 18.403C23.3988 19.2086 23.5178 20.4943 23.1567 21.4507C22.7599 22.4903 21.7757 23.1967 20.3908 23.4309C19.9623 23.5062 18.9463 23.4943 18.4861 23.411C17.4821 23.2324 16.5297 22.7364 15.9424 22.0856C15.7123 21.8316 15.2638 21.1689 15.2916 21.1213C15.3035 21.1055 15.4067 21.042 15.5217 20.9745C15.6329 20.911 16.0536 20.6689 16.4503 20.4388L17.1686 20.0221L17.3194 20.2443C17.5297 20.5657 17.99 21.0063 18.2678 21.153C19.0654 21.5737 20.1607 21.5142 20.7003 21.0301C20.9305 20.8197 21.0257 20.6015 21.0257 20.2801C21.0257 19.9903 20.99 19.8634 20.8392 19.6451C20.6448 19.3674 20.248 19.1332 19.1209 18.6451C17.8313 18.0896 17.2757 17.7443 16.7678 17.1967C16.4742 16.8793 16.1963 16.3713 16.0813 15.9467C15.9861 15.5936 15.9623 14.7086 16.0376 14.3515C16.3035 13.1055 17.244 12.2364 18.6011 11.9784C19.0417 11.8951 20.0654 11.9269 20.498 12.034Z" fill="white"/>
</g>
<defs>
<clipPath id="clip0_245_280">
<rect width="25" height="25" fill="white" transform="translate(0.325439 0.5)"/>
</clipPath>
</defs>
</svg>
