<svg width="29" height="26" viewBox="0 0 29 26" fill="none" xmlns="http://www.w3.org/2000/svg">
<g clip-path="url(#clip0_204_97)">
<path d="M23.9219 8.59472C23.6231 8.49222 23.3219 8.39727 23.0184 8.30996C23.0693 8.10162 23.1163 7.89581 23.1579 7.69362C23.8419 4.37334 23.3948 1.69845 21.8675 0.817744C20.4031 -0.0265541 18.0083 0.853819 15.5896 2.95875C15.3513 3.16657 15.1182 3.38039 14.8906 3.59998C14.7383 3.45396 14.5832 3.31077 14.4256 3.17049C11.8907 0.919827 9.34994 -0.0287471 7.82428 0.854476C6.36123 1.70141 5.92801 4.21599 6.5438 7.3627C6.60506 7.67435 6.67424 7.98439 6.75125 8.29252C6.3916 8.39472 6.04456 8.50349 5.71244 8.61928C2.74051 9.65546 0.84259 11.2793 0.84259 12.9636C0.84259 14.7032 2.88009 16.448 5.97548 17.506C6.22643 17.5914 6.47947 17.6706 6.73437 17.7434C6.65158 18.0753 6.57809 18.4094 6.51397 18.7454C5.92691 21.8375 6.38535 24.2926 7.84445 25.1342C9.35147 26.0033 11.8809 25.1101 14.3437 22.9571C14.5434 22.7821 14.7387 22.6021 14.9294 22.4173C15.1759 22.6551 15.4289 22.8859 15.6882 23.1096C18.0739 25.1625 20.4301 25.9914 21.8878 25.1476C23.3934 24.276 23.8827 21.6385 23.2474 18.4296C23.1974 18.1782 23.1412 17.928 23.0791 17.6794C23.2567 17.6267 23.4311 17.5726 23.601 17.5162C26.819 16.4501 28.9128 14.7264 28.9128 12.9636C28.9128 11.2731 26.9536 9.63836 23.9219 8.59472ZM23.2239 16.3781C23.0704 16.4288 22.913 16.4778 22.7525 16.5255C22.3972 15.4009 21.9178 14.205 21.3311 12.9694C21.8909 11.7632 22.3519 10.5827 22.6972 9.46533C22.9844 9.54844 23.263 9.63605 23.5316 9.72849C26.1292 10.6228 27.7136 11.9448 27.7136 12.9636C27.7136 14.0487 26.0025 15.4573 23.2239 16.3781ZM22.0711 18.6625C22.352 20.0813 22.392 21.3642 22.206 22.3672C22.0389 23.2684 21.7027 23.8692 21.2869 24.1098C20.4023 24.6219 18.5106 23.9563 16.4703 22.2006C16.2291 21.9927 15.9938 21.778 15.7645 21.557C16.5555 20.692 17.346 19.6864 18.1175 18.5695C19.4745 18.4491 20.7565 18.2522 21.9191 17.9834C21.9751 18.2085 22.0258 18.435 22.0711 18.6625ZM10.4123 24.0214C9.54807 24.3265 8.8597 24.3353 8.44358 24.0954C7.55816 23.5847 7.19007 21.6134 7.69215 18.9691C7.75183 18.6566 7.82017 18.3458 7.89709 18.0372C9.04687 18.2915 10.3196 18.4744 11.6798 18.5847C12.4565 19.6776 13.2698 20.6821 14.0894 21.5617C13.9152 21.7303 13.7369 21.8945 13.5547 22.0543C12.4655 23.0062 11.3742 23.6817 10.4123 24.0214ZM6.36342 16.3714C4.99467 15.9035 3.8643 15.2955 3.08952 14.632C2.39325 14.0358 2.04182 13.4438 2.04182 12.9636C2.04182 11.9414 3.56562 10.6377 6.10717 9.75163C6.41562 9.64417 6.73842 9.54274 7.0734 9.44757C7.42472 10.5901 7.88546 11.7847 8.44149 12.9927C7.87823 14.2186 7.4109 15.4323 7.05619 16.5884C6.82352 16.5217 6.59253 16.4494 6.36342 16.3714ZM7.72066 7.13233C7.19314 4.43638 7.54347 2.40272 8.42516 1.89231C9.36419 1.34866 11.4407 2.12377 13.6294 4.0672C13.7722 4.19421 13.9126 4.3238 14.0506 4.4559C13.235 5.33167 12.4292 6.32871 11.6594 7.41511C10.3392 7.53748 9.07549 7.73397 7.91364 7.99724C7.84206 7.71064 7.77771 7.42217 7.72066 7.13233ZM19.8289 10.1223C19.5545 9.64833 19.2699 9.18027 18.9753 8.71851C19.8709 8.83178 20.729 8.98211 21.5348 9.16588C21.2929 9.94132 20.9914 10.752 20.6364 11.5831C20.377 11.0909 20.1078 10.6038 19.8289 10.1223ZM14.8912 5.31303C15.4442 5.91226 15.9982 6.58123 16.543 7.30711C15.4378 7.25491 14.3307 7.25469 13.2254 7.30645C13.7708 6.58726 14.3294 5.91917 14.8912 5.31303ZM9.92176 10.1305C9.64636 10.6081 9.38214 11.0921 9.12932 11.582C8.7802 10.7538 8.48141 9.93945 8.23744 9.15305C9.03831 8.97388 9.89237 8.82739 10.7823 8.71621C10.4844 9.18079 10.1975 9.65241 9.92176 10.1305ZM10.8078 17.2963C9.88842 17.1936 9.02154 17.0547 8.22088 16.8804C8.46869 16.0799 8.77406 15.2482 9.13075 14.4023C9.38457 14.8926 9.64988 15.3769 9.92647 15.8547C10.2109 16.3459 10.5054 16.8271 10.8078 17.2963ZM14.9243 20.6987C14.3559 20.0855 13.789 19.4071 13.2354 18.6775C13.7729 18.6986 14.3208 18.7093 14.8777 18.7093C15.4498 18.7093 16.0154 18.6965 16.5721 18.6717C16.0255 19.4145 15.4736 20.0938 14.9243 20.6987ZM20.6477 14.3591C21.023 15.2143 21.3392 16.0416 21.5903 16.8284C20.7765 17.0141 19.8977 17.1637 18.9719 17.2748C19.2686 16.8044 19.5559 16.3282 19.8336 15.8465C20.116 15.3568 20.3874 14.8609 20.6477 14.3591ZM18.7949 15.2473C18.3697 15.986 17.9206 16.7106 17.4483 17.42C16.5928 17.4806 15.7353 17.5107 14.8777 17.5103C14.0041 17.5103 13.1544 17.4831 12.3362 17.43C11.8516 16.7222 11.3939 15.9963 10.9642 15.2539C10.5365 14.5155 10.1371 13.761 9.7666 12.9922C10.1361 12.2232 10.5344 11.4684 10.9607 10.7294L10.9606 10.7295C11.3867 9.99025 11.8407 9.26747 12.3216 8.5627C13.1564 8.49954 14.0124 8.46665 14.8776 8.46665C15.7466 8.46665 16.6039 8.49987 17.4384 8.56347C17.9145 9.26718 18.3656 9.98747 18.7909 10.723C19.2186 11.4604 19.6222 12.2115 20.001 12.9752C19.6261 13.7467 19.2238 14.5045 18.7949 15.2473ZM21.2686 1.85656C22.2085 2.39866 22.5741 4.58474 21.9835 7.45152C21.9458 7.63441 21.9034 7.8207 21.8574 8.00963C20.6927 7.74077 19.4281 7.54088 18.1041 7.41665C17.3328 6.31829 16.5336 5.31972 15.7313 4.45524C15.9416 4.25256 16.1568 4.05513 16.3769 3.86314C18.4493 2.05974 20.3861 1.34768 21.2686 1.85656ZM14.8777 10.457C16.262 10.457 17.3843 11.5793 17.3843 12.9636C17.3843 14.3479 16.262 15.4702 14.8777 15.4702C13.4934 15.4702 12.3711 14.3479 12.3711 12.9636C12.3711 11.5793 13.4934 10.457 14.8777 10.457Z" fill="#00D8FF"/>
</g>
<defs>
<clipPath id="clip0_204_97">
<rect width="28.0702" height="25" fill="white" transform="translate(0.84259 0.5)"/>
</clipPath>
</defs>
</svg>
