<svg xmlns="http://www.w3.org/2000/svg" xml:space="preserve" fill-rule="evenodd" stroke-linejoin="round" stroke-miterlimit="2" clip-rule="evenodd" viewBox="0 0 760 500"><g transform="translate(0 -.333)"><path fill="none" d="M0 .333h759.804v500H0z"/><clipPath id="a"><path d="M0 .333h759.804v500H0z"/></clipPath><g clip-path="url(#a)"><path d="M303.598 494.105c-18.46 4.374-37.723 6.563-57.801 6.563-34.543 0-66.756-6.3-96.637-18.907-29.88-13.075-56.022-31.048-78.431-53.92-22.41-23.346-39.913-50.19-52.52-80.536C6.07 316.965-.001 284.515-.001 249.97c0-35.018 6.07-67.461 18.212-97.34 12.606-30.348 29.874-56.957 51.818-79.836 22.41-22.872 48.322-40.612 77.731-53.219C177.64 6.968 209.852.667 244.396.667c34.55 0 66.526 6.301 95.942 18.908 29.874 12.607 56.023 30.347 78.432 53.22a246.77 246.77 0 0 1 37.225 48.898l-36.915 90.199c-2.21-12.66-5.586-24.712-10.113-36.151-8.874-22.878-21.244-42.72-37.117-59.526C355.976 99.41 337.3 86.57 315.827 77.7c-21.473-9.337-45.283-14.008-71.431-14.008-34.544 0-65.126 7.941-91.732 23.812-26.148 15.872-46.92 37.816-62.329 65.827-14.937 28.01-22.41 60.226-22.41 96.64 0 27.077 4.205 52.285 12.607 75.63 8.873 22.873 21.008 42.715 36.416 59.52 15.874 16.345 34.544 29.18 56.023 38.516 21.937 9.337 45.748 14.009 71.425 14.009 35.015 0 65.596-7.936 91.738-23.813.141-.082.276-.17.418-.257l-32.954 80.53Zm48.8-91.525c19.054-14.814 34.645-33.237 46.759-55.275 15.409-28.478 23.11-60.921 23.11-97.335 0-5.67-.189-11.235-.58-16.7l40.796-99.689a264.906 264.906 0 0 1 8.806 19.048c10.423 25.091 16.534 51.783 18.34 80.068l-82.75 206.705c-19.25 17.454-41.194 31.573-65.84 42.359a228.2 228.2 0 0 1-24.7 8.94l36.06-88.121Zm137.648-142.654c-1.03 31.1-7.283 60.46-18.757 88.08-11.252 27.082-26.404 51.187-45.458 72.32l64.215-160.4Z"/><path d="M537.407 113.342 385.152 493.667h-70.03L514 7.669h47.62L759.8 493.667h-71.43L537.406 113.342Z"/></g></g>

<style>
    svg {
        fill: #000;
        @media (prefers-color-scheme: dark){
        fill: #fff;
        }
    }
</style>

</svg>