<svg width="17" height="26" viewBox="0 0 17 26" fill="none" xmlns="http://www.w3.org/2000/svg">
<g clip-path="url(#clip0_204_76)">
<path d="M4.27611 25.5C6.58834 25.5 8.46494 23.6333 8.46494 21.3333V17.1667H4.27611C1.96388 17.1667 0.0872803 19.0333 0.0872803 21.3333C0.0872803 23.6333 1.96388 25.5 4.27611 25.5Z" fill="#0ACF83"/>
<path d="M0.0872803 13C0.0872803 10.7 1.96388 8.83333 4.27611 8.83333H8.46494V17.1667H4.27611C1.96388 17.1667 0.0872803 15.3 0.0872803 13Z" fill="#A259FF"/>
<path d="M0.0872803 4.66667C0.0872803 2.36667 1.96388 0.5 4.27611 0.5H8.46494V8.83333H4.27611C1.96388 8.83333 0.0872803 6.96667 0.0872803 4.66667Z" fill="#F24E1E"/>
<path d="M8.46494 0.5H12.6538C14.966 0.5 16.8426 2.36667 16.8426 4.66667C16.8426 6.96667 14.966 8.83333 12.6538 8.83333H8.46494V0.5Z" fill="#FF7262"/>
<path d="M16.8426 13C16.8426 15.3 14.966 17.1667 12.6538 17.1667C10.3415 17.1667 8.46494 15.3 8.46494 13C8.46494 10.7 10.3415 8.83333 12.6538 8.83333C14.966 8.83333 16.8426 10.7 16.8426 13Z" fill="#1ABCFE"/>
</g>
<defs>
<clipPath id="clip0_204_76">
<rect width="16.7553" height="25" fill="white" transform="translate(0.0872803 0.5)"/>
</clipPath>
</defs>
</svg>
