<svg width="26" height="26" viewBox="0 0 26 26" fill="none" xmlns="http://www.w3.org/2000/svg">
<path d="M5.45352 21.7508L3.69884 2.0625H22.9863L21.2293 21.7477L13.3309 23.9375L5.45352 21.7508Z" fill="#1572B6"/>
<path d="M13.3426 22.2641L19.7254 20.4945L21.227 3.67266H13.3426V22.2641Z" fill="#33A9DC"/>
<path d="M13.3426 10.8055H16.5379L16.7582 8.33281H13.3426V5.91797H19.3973L19.3395 6.56563L18.7465 13.2203H13.3426V10.8055Z" fill="white"/>
<path d="M13.3574 17.0766L13.3465 17.0797L10.6574 16.3531L10.4856 14.4273H8.06134L8.39962 18.2187L13.3457 19.5922L13.3574 19.5891V17.0766Z" fill="#EBEBEB"/>
<path d="M16.3324 13.118L16.0418 16.3516L13.3488 17.0781V19.5906L18.2988 18.2188L18.3356 17.8109L18.7551 13.118H16.3324Z" fill="white"/>
<path d="M13.3512 5.91797V8.33281H7.51838L7.46994 7.78984L7.35978 6.56563L7.30197 5.91797H13.3512ZM13.3426 10.8055V13.2203H10.6871L10.6387 12.6773L10.5293 11.4531L10.4715 10.8055H13.3426Z" fill="#EBEBEB"/>
</svg>
